<?xml version="1.0" encoding="UTF-8" standalone="no"?>
<!DOCTYPE svg PUBLIC "-//W3C//DTD SVG 1.1//EN" "http://www.w3.org/Graphics/SVG/1.1/DTD/svg11.dtd">
<svg version="1.1" xmlns="http://www.w3.org/2000/svg" xmlns:xlink="http://www.w3.org/1999/xlink" preserveAspectRatio="xMidYMid meet" viewBox="0 0 630 615" width="630" height="615"><defs><path d="M595.55 233.29C594.5 234.24 593.85 235.55 593.72 236.96C597.21 288.54 568.93 370.08 450.45 447.12C449.48 448.07 447.92 448.07 446.95 447.12C445.98 446.09 445.98 444.49 446.95 443.46C498.21 386.55 613.36 229.8 485.89 129.96C485.89 129.96 482.4 126.46 480.57 128.3C479.52 129.17 478.86 130.43 478.74 131.79C508.86 212 469.92 281.55 450.45 310.01C449.49 310.91 448.26 311.49 446.95 311.67C445.12 311.67 445.12 308.18 445.12 308.18C471.75 191.69 425.82 121.14 353.27 62.4C354.47 58.24 360.46 37.44 371.24 0C339.39 1.1 321.7 1.71 318.16 1.83C289.41 4.36 261.62 13.47 236.96 28.45C217.85 28.07 198.79 30.48 180.38 35.61C150.04 47.49 122.58 65.7 99.84 89.02C93.18 96.51 59.9 133.95 0 201.35C29.95 241.88 46.59 264.4 49.92 268.9C48.19 310.41 73.08 348.42 111.82 363.42C132.54 320.26 175.47 292.14 223.31 290.37C256.35 291.25 287.27 306.8 307.68 332.8C334.13 275.73 300.52 209.83 289.87 184.87C289.07 183.85 289.07 182.4 289.87 181.38C289.87 181.38 289.87 181.38 289.87 181.38C291.7 179.55 293.53 183.21 293.53 183.21C417.17 325.65 279.39 541.14 224.48 605.2C222.55 607.2 222.55 610.36 224.48 612.36C224.48 612.36 224.48 612.36 224.48 612.36C226.31 617.68 231.63 614.19 231.63 614.19C266.91 601.71 339.46 576.75 417.17 542.97C556.95 488.05 691.23 399.36 599.04 235.13C599.04 235.13 597.21 231.63 595.55 233.29ZM137.61 168.56C135.78 170.39 133.95 168.56 135.78 166.73C137.61 164.9 152.42 127.63 152.42 127.63C157.75 115.15 161.24 104.5 178.88 102.67C182.39 102.39 210.48 100.12 213.99 99.84C213.99 99.84 141.44 167.4 137.95 169.23C137.88 169.1 137.68 168.7 137.61 168.56Z" id="a3CsshSr8W"></path></defs><g><g><g><use xlink:href="#a3CsshSr8W" opacity="1" fill="#ffffff" fill-opacity="1"></use><g><use xlink:href="#a3CsshSr8W" opacity="1" fill-opacity="0" stroke="#000000" stroke-width="1" stroke-opacity="0"></use></g></g></g></g></svg>